<svg xmlns="http://www.w3.org/2000/svg" width="404" height="174" viewBox="0 0 404 174" role="img" aria-labelledby="title desc">
  <title id="title">Code 128 barcode for 4801234500059</title>
  <desc id="desc">Test barcode for the Hardware POS scanner. Encoded value: 4801234500059.</desc>
  <rect width="100%" height="100%" fill="#fff"/>
  <g fill="#000">
    <rect x="24" y="24" width="4" height="112"/>
    <rect x="30" y="24" width="2" height="112"/>
    <rect x="36" y="24" width="2" height="112"/>
    <rect x="46" y="24" width="4" height="112"/>
    <rect x="54" y="24" width="2" height="112"/>
    <rect x="60" y="24" width="6" height="112"/>
    <rect x="68" y="24" width="6" height="112"/>
    <rect x="76" y="24" width="2" height="112"/>
    <rect x="82" y="24" width="4" height="112"/>
    <rect x="90" y="24" width="2" height="112"/>
    <rect x="96" y="24" width="6" height="112"/>
    <rect x="104" y="24" width="4" height="112"/>
    <rect x="112" y="24" width="2" height="112"/>
    <rect x="118" y="24" width="6" height="112"/>
    <rect x="128" y="24" width="4" height="112"/>
    <rect x="134" y="24" width="4" height="112"/>
    <rect x="142" y="24" width="6" height="112"/>
    <rect x="152" y="24" width="2" height="112"/>
    <rect x="156" y="24" width="4" height="112"/>
    <rect x="164" y="24" width="2" height="112"/>
    <rect x="168" y="24" width="6" height="112"/>
    <rect x="178" y="24" width="4" height="112"/>
    <rect x="186" y="24" width="2" height="112"/>
    <rect x="192" y="24" width="6" height="112"/>
    <rect x="200" y="24" width="4" height="112"/>
    <rect x="206" y="24" width="6" height="112"/>
    <rect x="216" y="24" width="2" height="112"/>
    <rect x="222" y="24" width="2" height="112"/>
    <rect x="228" y="24" width="6" height="112"/>
    <rect x="236" y="24" width="4" height="112"/>
    <rect x="244" y="24" width="2" height="112"/>
    <rect x="250" y="24" width="6" height="112"/>
    <rect x="258" y="24" width="4" height="112"/>
    <rect x="266" y="24" width="2" height="112"/>
    <rect x="272" y="24" width="6" height="112"/>
    <rect x="280" y="24" width="4" height="112"/>
    <rect x="288" y="24" width="4" height="112"/>
    <rect x="294" y="24" width="6" height="112"/>
    <rect x="304" y="24" width="2" height="112"/>
    <rect x="310" y="24" width="6" height="112"/>
    <rect x="320" y="24" width="2" height="112"/>
    <rect x="324" y="24" width="4" height="112"/>
    <rect x="332" y="24" width="2" height="112"/>
    <rect x="338" y="24" width="2" height="112"/>
    <rect x="344" y="24" width="4" height="112"/>
    <rect x="354" y="24" width="4" height="112"/>
    <rect x="364" y="24" width="6" height="112"/>
    <rect x="372" y="24" width="2" height="112"/>
    <rect x="376" y="24" width="4" height="112"/>
  </g>
  <text x="202" y="156" text-anchor="middle" font-family="Arial, Helvetica, sans-serif" font-size="20" font-weight="700" fill="#000">4801234500059</text>
</svg>
